# xmcd
#
# Track frame offsets: 
#        150
#        18734
#        41323
#        53156
#        76670
#        99407
#        118667
#        137896
#        164979
#        191224
#        217343
#        242577
#        267878
#        319040
#
# Disc length: 4575 seconds
#
# Revision: 1
# Processed by: cddbd v1.5.2PL0 Copyright (c) Steve Scherf et al.
# Submitted via: ExactAudioCopy v0.99pb5
#
DISCID=cb11dd0e
DTITLE=Ruthie Foster - Live At Antone's
DYEAR=2011
DGENRE=Blues
TTITLE0=Stone Love
TTITLE1=I Really Love You
TTITLE2=(You Keep Me) Hangin' On
TTITLE3=Up Above My Head (I Hear Music In The Air)
TTITLE4=Runaway Soul
TTITLE5=Fruits Of My Labor
TTITLE6=When It Don't Come Easy
TTITLE7=Back To The Blues (Duet with Hadden Sayers)
TTITLE8=Nickel And A Nail
TTITLE9=Heal Yourself (with Papa Mali)
TTITLE10=Woke Up This Mornin'
TTITLE11=Phenomenal Woman
TTITLE12=Death Came A-Knockin'
TTITLE13=Ocean Of Tears
EXTD=
EXTT0=
EXTT1=
EXTT2=
EXTT3=
EXTT4=
EXTT5=
EXTT6=
EXTT7=
EXTT8=
EXTT9=
EXTT10=
EXTT11=
EXTT12=
EXTT13=
PLAYORDER=
